<?xml version="1.0" standalone="no"?>
<!DOCTYPE svg PUBLIC "-//W3C//DTD SVG 20010904//EN"
 "http://www.w3.org/TR/2001/REC-SVG-20010904/DTD/svg10.dtd">
<svg version="1.0" xmlns="http://www.w3.org/2000/svg"
 width="500.000000pt" height="500.000000pt" viewBox="0 0 500.000000 500.000000"
 preserveAspectRatio="xMidYMid meet">
<metadata>
Created by potrace 1.16, written by Peter Selinger 2001-2019
</metadata>
<g transform="translate(0.000000,500.000000) scale(0.100000,-0.100000)"
fill="#000000" stroke="none">
<path d="M2280 3686 c-118 -34 -304 -86 -412 -116 l-198 -55 0 -431 c0 -474 5
-531 61 -698 106 -317 363 -602 692 -767 l78 -40 96 50 c136 72 242 151 358
266 189 188 305 398 361 655 17 76 19 132 19 524 l0 439 -80 22 c-44 13 -228
65 -410 115 -181 51 -334 94 -340 96 -5 1 -107 -26 -225 -60z m414 -112 c196
-54 341 -95 479 -135 l67 -20 0 -297 c0 -474 -21 -607 -130 -827 -118 -239
-276 -401 -546 -557 l-62 -36 -73 40 c-304 164 -525 428 -612 728 -42 143 -48
237 -45 610 l3 344 135 39 c74 22 234 68 355 102 121 34 222 63 224 64 2 0 94
-24 205 -55z"/>
<path d="M2496 3440 c-3 -8 -20 -58 -37 -110 -17 -52 -35 -98 -38 -102 -3 -4
-51 -13 -105 -19 l-99 -13 40 -35 c23 -20 86 -76 142 -124 l101 -89 141 123
142 124 -99 13 c-54 7 -100 14 -101 16 -2 1 -21 54 -42 117 -22 62 -42 107
-45 99z"/>
<path d="M3060 3269 c-146 -124 -540 -439 -555 -445 -16 -6 -114 70 -414 321
-269 225 -244 209 -221 139 10 -33 28 -91 39 -130 l21 -70 235 -225 c191 -182
235 -229 235 -250 0 -65 83 -665 97 -699 3 -8 10 7 14 35 17 100 89 639 89
664 0 21 47 71 234 248 l234 222 44 135 c25 75 44 136 44 136 -1 -1 -44 -37
-96 -81z"/>
<path d="M1875 3040 c36 -115 31 -109 264 -325 l224 -209 -7 50 c-6 47 -12 55
-124 164 -238 232 -365 346 -357 320z"/>
<path d="M2895 2837 c-126 -121 -233 -226 -236 -231 -4 -6 -9 -31 -13 -55 l-7
-43 166 153 c294 273 280 257 305 327 12 35 20 65 18 67 -1 2 -106 -96 -233
-218z"/>
<path d="M1879 2793 c5 -10 41 -110 81 -223 40 -113 81 -229 92 -258 l20 -54
30 65 30 65 -26 53 c-14 29 -24 55 -22 57 5 5 190 -247 285 -388 90 -135 98
-146 86 -115 -26 66 -95 273 -116 344 l-24 84 -217 194 c-120 106 -220 193
-223 193 -3 0 -2 -8 4 -17z"/>
<path d="M2900 2618 c-170 -149 -218 -196 -228 -226 -39 -111 -130 -407 -127
-410 2 -2 11 10 20 27 26 51 351 501 361 501 3 0 -7 -22 -21 -50 -14 -27 -25
-57 -25 -67 0 -20 42 -123 50 -123 6 0 193 531 188 534 -2 2 -100 -82 -218
-186z"/>
<path d="M1759 1229 c-41 -89 -75 -165 -77 -170 -2 -5 10 -9 28 -9 26 0 33 6
46 35 l14 35 69 0 70 0 12 -35 c11 -30 18 -35 45 -35 l32 0 -27 58 c-16 31
-50 104 -76 162 -27 58 -52 108 -55 113 -4 4 -40 -65 -81 -154z m121 -51 c0
-5 -20 -8 -44 -8 l-44 0 21 50 21 51 23 -43 c12 -24 22 -46 23 -50z"/>
<path d="M2573 1380 c-125 -29 -172 -179 -87 -279 53 -64 173 -78 250 -31 33
21 34 23 34 91 l0 69 -75 0 c-73 0 -75 -1 -75 -25 0 -23 4 -25 45 -25 44 0 45
-1 45 -31 0 -25 -6 -32 -36 -45 -105 -44 -211 65 -160 164 29 57 115 81 164
46 21 -15 25 -15 42 1 23 20 19 30 -18 49 -37 18 -91 25 -129 16z"/>
<path d="M3153 1376 c-82 -37 -67 -147 25 -176 58 -19 82 -38 82 -65 0 -24
-25 -45 -54 -45 -8 0 -28 11 -44 25 -27 22 -30 23 -51 8 l-23 -15 28 -29 c68
-71 204 -35 204 54 0 46 -30 82 -88 103 -63 23 -74 33 -70 63 2 21 9 27 36 29
21 2 41 -3 52 -13 15 -14 21 -14 39 -3 25 15 23 26 -10 49 -34 25 -88 31 -126
15z"/>
<path d="M2098 1215 l-3 -165 118 0 117 0 0 25 c0 25 -1 25 -90 25 l-90 0 0
45 0 45 65 0 c63 0 65 1 65 25 0 24 -2 25 -65 25 l-65 0 0 45 0 45 90 0 c89 0
90 0 90 25 l0 25 -115 0 -114 0 -3 -165z"/>
<path d="M2910 1215 l0 -165 30 0 30 0 0 165 0 165 -30 0 -30 0 0 -165z"/>
</g>
</svg>
